#!OML:ASF F:\VICON\USERDATA\INSTALL\rory3\rory3.ASF
:FULLY-SPECIFIED
:DEGREES
645
root -18.926 17.8994 9.7161 -182.434 -2.58139 178.12
lowerback 13.2029 0.999678 1.217
upperback 0.419181 1.43911 0.415697
thorax -6.95045 0.624669 -0.515027
lowerneck -21.3842 -1.14176 -11.2184
upperneck 34.2813 -1.14958 4.67745
head 15.8339 -2.0401 3.53679
rclavicle 1.5704e-014 -8.34896e-015
rhumerus -35.0858 -22.3421 -72.1955
rradius 35.459
rwrist 2.89065
rhand -18.1449 10.0893
rfingers 7.12502
rthumb 8.13049 -19.7343
lclavicle 1.5704e-014 -8.34896e-015
lhumerus -31.472 7.7821 82.6356
lradius 37.5367
lwrist -2.15072
lhand -19.3395 24.1676
lfingers 7.12502
lthumb 6.97748 54.0326
rfemur 0.44074 -2.00417 15.9973
rtibia 24.9171
rfoot -17.2185 0.138033
rtoes -1.69197
lfemur -6.69051 -7.91787 -5.31547
ltibia 27.6301
lfoot -7.63418 -3.06173
ltoes -7.72756
646
root -19.0105 17.9083 9.71553 -182.485 -2.61607 177.968
lowerback 13.2444 0.962584 1.12137
upperback 0.460634 1.36784 0.340141
thorax -6.93099 0.591154 -0.527725
lowerneck -21.4367 -1.11378 -11.3255
upperneck 34.1806 -1.0709 4.79665
head 15.7892 -1.99097 3.62236
rclavicle 1.78906e-015 1.59028e-014
rhumerus -35.0159 -22.1216 -72.3328
rradius 35.5663
rwrist 3.10884
rhand -18.0018 10.0272
rfingers 7.12502
rthumb 8.26861 -19.791
lclavicle 1.78906e-015 1.59028e-014
lhumerus -31.5913 7.57743 82.87
lradius 37.9619
lwrist -1.255
lhand -21.2262 25.5505
lfingers 7.12502
lthumb 5.15594 55.4678
rfemur 0.788433 -1.80358 15.5835
rtibia 24.3777
rfoot -16.9863 -0.42012
rtoes -2.06428
lfemur -6.46949 -8.25594 -4.93784
ltibia 27.1173
lfoot -6.46059 -3.00481
ltoes -10.0439
647
root -19.098 17.9161 9.71796 -182.502 -2.62924 177.862
lowerback 13.2238 0.928271 1.05827
upperback 0.521383 1.30591 0.303066
thorax -6.85611 0.56184 -0.518479
lowerneck -21.5095 -1.07969 -11.3413
upperneck 34.0683 -0.941777 4.72583
head 15.738 -1.9344 3.61833
rclavicle -1.92324e-014 -2.18663e-014
rhumerus -34.7643 -21.8809 -72.4578
rradius 35.4566
rwrist 3.33115
rhand -17.9834 9.7809
rfingers 7.12502
rthumb 8.28633 -20.0366
lclavicle -1.92324e-014 -2.18663e-014
lhumerus -31.4597 7.7759 82.9588
lradius 38.0252
lwrist -1.0042
lhand -22.0319 25.7926
lfingers 7.12502
lthumb 4.37797 55.7274
rfemur 1.06778 -1.72265 15.1691
rtibia 23.881
rfoot -16.8308 -0.448523
rtoes -2.34213
lfemur -6.27754 -8.59842 -4.53522
ltibia 26.5769
lfoot -5.25648 -2.93989
ltoes -11.3834
648
root -19.1853 17.9247 9.72467 -182.448 -2.64758 177.739
lowerback 13.3233 0.903988 1.00039
upperback 0.428999 1.26649 0.221963
thorax -7.01052 0.543867 -0.567032
lowerneck -21.4721 -1.05062 -11.303
upperneck 34.0874 -0.903727 4.66287
head 15.7339 -1.92697 3.59082
rclavicle -6.90777e-015 3.18055e-015
rhumerus -34.7419 -21.6436 -72.5278
rradius 35.3158
rwrist 3.49381
rhand -17.9926 9.65273
rfingers 7.12502
rthumb 8.27749 -20.1651
lclavicle -6.90777e-015 3.18055e-015
lhumerus -31.3809 7.80141 82.9006
lradius 37.8149
lwrist -0.668768
lhand -21.7201 25.7798
lfingers 7.12502
lthumb 4.67904 55.7081
rfemur 1.27399 -1.62116 14.7522
rtibia 23.387
rfoot -16.7134 -0.591623
rtoes -3.10618
lfemur -6.17527 -9.01492 -4.12659
ltibia 26.0481
lfoot -3.43195 -2.666
ltoes -6.93951
649
root -19.2757 17.929 9.73202 -182.37 -2.617 177.671
lowerback 13.4389 0.871574 1.08393
upperback 0.309554 1.2357 0.0917973
thorax -7.19889 0.52457 -0.749737
lowerneck -21.5165 -0.990508 -11.1557
upperneck 34.2097 -0.85265 4.56882
head 15.7962 -1.91217 3.53606
rclavicle 1.76173e-014 1.23246e-014
rhumerus -34.8274 -21.3811 -72.6615
rradius 35.26
rwrist 3.57128
rhand -17.9264 9.58052
rfingers 7.12502
rthumb 8.34138 -20.2348
lclavicle 1.76173e-014 1.23246e-014
lhumerus -31.4741 7.81602 82.7478
lradius 37.764
lwrist -0.600541
lhand -21.3019 25.6386
lfingers 7.12502
lthumb 5.08288 55.5576
rfemur 1.43969 -1.45681 14.3942
rtibia 22.8571
rfoot -16.567 -0.752363
rtoes -3.67302
lfemur -6.04981 -9.46486 -3.64267
ltibia 25.5495
lfoot -2.25953 -2.51103
ltoes -4.18104
650
root -19.3691 17.9312 9.74024 -182.244 -2.67689 177.697
lowerback 13.3391 0.825886 1.16818
upperback 0.363809 1.18445 0.0983611
thorax -7.08411 0.497197 -0.778119
lowerneck -21.8821 -1.04302 -11.1788
upperneck 34.2615 -0.780948 4.40277
head 15.9024 -1.90093 3.48748
rclavicle -1.10574e-014 -1.39149e-014
rhumerus -34.5767 -21.1674 -72.7581
rradius 35.2472
rwrist 3.53237
rhand -17.9138 9.78483
rfingers 7.12502
rthumb 8.35348 -20.03
lclavicle -1.10574e-014 -1.39149e-014
lhumerus -31.4857 7.98097 82.8495
lradius 38.1222
lwrist -0.780447
lhand -21.2058 25.92
lfingers 7.12502
lthumb 5.17565 55.8368
rfemur 1.51735 -1.31739 14.1438
rtibia 22.419
rfoot -16.3729 -1.02155
rtoes -4.35359
lfemur -6.00154 -9.95975 -3.04867
ltibia 25.0161
lfoot -1.68444 -2.87719
ltoes -5.06012
651
root -19.4638 17.9351 9.74743 -182.227 -2.67764 177.817
lowerback 13.1484 0.839421 1.15161
upperback 0.510444 1.20036 0.270114
thorax -6.82436 0.507851 -0.585111
lowerneck -21.9561 -1.13486 -11.4028
upperneck 34.0631 -0.736058 4.31435
head 15.8233 -1.90057 3.49458
rclavicle 6.16232e-015 -2.38542e-015
rhumerus -34.2411 -21.0532 -72.6366
rradius 35.2044
rwrist 3.55823
rhand -17.8394 9.67773
rfingers 7.12502
rthumb 8.42536 -20.1342
lclavicle 6.16232e-015 -2.38542e-015
lhumerus -31.6427 8.01127 83.199
lradius 38.8061
lwrist -0.796189
lhand -21.0895 25.7695
lfingers 7.12502
lthumb 5.28797 55.6836
rfemur 1.70593 -1.09523 13.9922
rtibia 21.9847
rfoot -16.1294 -1.22223
rtoes -4.88624
lfemur -5.97971 -10.0144 -2.43433
ltibia 24.4872
lfoot -0.654522 -3.44421
ltoes -7.94523
652
root -19.5635 17.9284 9.75301 -182.236 -2.66192 177.857
lowerback 13.0348 0.815598 1.10525
upperback 0.585533 1.16298 0.383531
thorax -6.6847 0.492389 -0.429535
lowerneck -21.9769 -1.11847 -11.5925
upperneck 33.9866 -0.62861 4.35509
head 15.7814 -1.86675 3.56493
rclavicle 7.50412e-015 5.1684e-015
rhumerus -34.0941 -20.793 -72.5541
rradius 35.2651
rwrist 3.54225
rhand -17.7134 9.46236
rfingers 7.12502
rthumb 8.54691 -20.3447
lclavicle 7.50412e-015 5.1684e-015
lhumerus -31.8497 7.99783 83.4704
lradius 39.3074
lwrist -0.579756
lhand -21.1647 25.7914
lfingers 7.12502
lthumb 5.2153 55.7072
rfemur 1.93984 -0.883537 13.7108
rtibia 21.5494
rfoot -15.9002 -1.35208
rtoes -5.56119
lfemur -5.64159 -10.2737 -1.87874
ltibia 24.0197
lfoot 0.96315 -3.09228
ltoes -7.75135
653
root -19.6608 17.9301 9.75642 -182.201 -2.73797 177.952
lowerback 13.074 0.755843 1.19913
upperback 0.595761 1.09851 0.417362
thorax -6.69555 0.457684 -0.4353
lowerneck -22.2775 -1.06691 -11.5008
upperneck 34.0675 -0.469506 4.20143
head 15.8742 -1.80888 3.51837
rclavicle 9.64106e-015 2.14687e-014
rhumerus -34.0322 -20.7369 -72.5032
rradius 35.2444
rwrist 3.55691
rhand -17.5471 9.46946
rfingers 7.12502
rthumb 8.70746 -20.3309
lclavicle 9.64106e-015 2.14687e-014
lhumerus -31.4502 7.81493 83.6628
lradius 38.8756
lwrist -0.362508
lhand -21.7011 26.418
lfingers 7.12502
lthumb 4.69737 56.346
rfemur 2.06866 -0.733769 13.4929
rtibia 21.258
rfoot -15.7689 -1.47526
rtoes -5.74779
lfemur -5.4733 -10.3075 -1.35141
ltibia 23.4769
lfoot 2.55341 -2.82982
ltoes -9.66428
654
root -19.7594 17.9282 9.76081 -182.225 -2.78044 178.059
lowerback 13.225 0.803138 1.32039
upperback 0.542875 1.18314 0.405196
thorax -6.83247 0.494197 -0.535131
lowerneck -22.3628 -1.10467 -11.4332
upperneck 34.1535 -0.540453 4.18416
head 15.9438 -1.83657 3.4883
rclavicle 2.83268e-015 5.1684e-015
rhumerus -34.2449 -20.9071 -72.3122
rradius 35.2119
rwrist 3.51346
rhand -17.5656 9.49158
rfingers 7.12502
rthumb 8.68956 -20.3096
lclavicle 2.83268e-015 5.1684e-015
lhumerus -30.8342 7.40281 83.812
lradius 37.881
lwrist -0.444307
lhand -22.0247 26.4939
lfingers 7.12502
lthumb 4.38493 56.4285
rfemur 2.2899 -0.514968 13.2949
rtibia 20.8849
rfoot -15.5616 -1.65575
rtoes -6.36862
lfemur -5.27996 -10.2055 -0.876314
ltibia 23.0789
lfoot 3.48896 -2.81004
ltoes -12.5416
